REM DIRINDEX 1\2,1\3,1\4,1\5
REM DIRNAME folder01,folder02,folder03,folder04,folder05
TITLE ""
FILE "P1Q_t_0392-0401.mp3" MP3
  TRACK 01 AUDIO
    TITLE "3:cjc005_2078"
    INDEX 01 00:00:00
  TRACK 02 AUDIO
    TITLE "0:"
    INDEX 01 00:01:15
  TRACK 03 AUDIO
    TITLE "4:cjc005_2079"
    INDEX 01 00:01:46
  TRACK 04 AUDIO
    TITLE "0:"
    INDEX 01 00:02:71
  TRACK 05 AUDIO
    TITLE "5:cjc005_2080"
    INDEX 01 00:03:19
  TRACK 06 AUDIO
    TITLE "0:"
    INDEX 01 00:07:27
  TRACK 07 AUDIO
    TITLE "3:cjc005_2081"
    INDEX 01 00:08:09
  TRACK 08 AUDIO
    TITLE "0:"
    INDEX 01 00:09:28
  TRACK 09 AUDIO
    TITLE "4:cjc005_2082"
    INDEX 01 00:09:49
  TRACK 10 AUDIO
    TITLE "0:"
    INDEX 01 00:10:68
  TRACK 11 AUDIO
    TITLE "5:cjc005_2083"
    INDEX 01 00:11:19
  TRACK 12 AUDIO
    TITLE "0:"
    INDEX 01 00:15:56
  TRACK 13 AUDIO
    TITLE "3:cjc005_2084"
    INDEX 01 00:16:28
  TRACK 14 AUDIO
    TITLE "0:"
    INDEX 01 00:17:31
  TRACK 15 AUDIO
    TITLE "4:cjc005_2085"
    INDEX 01 00:17:59
  TRACK 16 AUDIO
    TITLE "0:"
    INDEX 01 00:19:01
  TRACK 17 AUDIO
    TITLE "5:cjc005_2086"
    INDEX 01 00:19:28
  TRACK 18 AUDIO
    TITLE "0:"
    INDEX 01 00:24:04
  TRACK 19 AUDIO
    TITLE "3:cjc005_2087"
    INDEX 01 00:24:57
  TRACK 20 AUDIO
    TITLE "0:"
    INDEX 01 00:25:72
  TRACK 21 AUDIO
    TITLE "4:cjc005_2088"
    INDEX 01 00:26:34
  TRACK 22 AUDIO
    TITLE "0:"
    INDEX 01 00:27:61
  TRACK 23 AUDIO
    TITLE "5:cjc005_2089"
    INDEX 01 00:28:17
  TRACK 24 AUDIO
    TITLE "0:"
    INDEX 01 00:32:45
  TRACK 25 AUDIO
    TITLE "3:cjc005_2090"
    INDEX 01 00:33:24
  TRACK 26 AUDIO
    TITLE "0:"
    INDEX 01 00:34:30
  TRACK 27 AUDIO
    TITLE "4:cjc005_2091"
    INDEX 01 00:34:61
  TRACK 28 AUDIO
    TITLE "0:"
    INDEX 01 00:36:19
  TRACK 29 AUDIO
    TITLE "5:cjc005_2092"
    INDEX 01 00:36:42
  TRACK 30 AUDIO
    TITLE "0:"
    INDEX 01 00:40:60
  TRACK 31 AUDIO
    TITLE "3:cjc005_2093"
    INDEX 01 00:41:38
  TRACK 32 AUDIO
    TITLE "0:"
    INDEX 01 00:42:59
  TRACK 33 AUDIO
    TITLE "4:cjc005_2094"
    INDEX 01 00:43:13
  TRACK 34 AUDIO
    TITLE "0:"
    INDEX 01 00:45:10
  TRACK 35 AUDIO
    TITLE "5:cjc005_2095"
    INDEX 01 00:45:35
  TRACK 36 AUDIO
    TITLE "0:"
    INDEX 01 00:49:39
  TRACK 37 AUDIO
    TITLE "3:cjc005_2096"
    INDEX 01 00:50:21
  TRACK 38 AUDIO
    TITLE "0:"
    INDEX 01 00:51:34
  TRACK 39 AUDIO
    TITLE "4:cjc005_2097"
    INDEX 01 00:51:69
  TRACK 40 AUDIO
    TITLE "0:"
    INDEX 01 00:53:35
  TRACK 41 AUDIO
    TITLE "5:cjc005_2098"
    INDEX 01 00:53:60
  TRACK 42 AUDIO
    TITLE "0:"
    INDEX 01 00:58:24
  TRACK 43 AUDIO
    TITLE "3:cjc005_2099"
    INDEX 01 00:59:02
  TRACK 44 AUDIO
    TITLE "0:"
    INDEX 01 01:00:27
  TRACK 45 AUDIO
    TITLE "4:cjc005_2100"
    INDEX 01 01:00:51
  TRACK 46 AUDIO
    TITLE "0:"
    INDEX 01 01:01:66
  TRACK 47 AUDIO
    TITLE "5:cjc005_2101"
    INDEX 01 01:02:08
  TRACK 48 AUDIO
    TITLE "0:"
    INDEX 01 01:06:73
  TRACK 49 AUDIO
    TITLE "3:cjc005_2102"
    INDEX 01 01:07:53
  TRACK 50 AUDIO
    TITLE "0:"
    INDEX 01 01:08:62
  TRACK 51 AUDIO
    TITLE "4:cjc005_2103"
    INDEX 01 01:09:16
  TRACK 52 AUDIO
    TITLE "0:"
    INDEX 01 01:10:47
  TRACK 53 AUDIO
    TITLE "5:cjc005_2104"
    INDEX 01 01:10:69
  TRACK 54 AUDIO
    TITLE "0:"
    INDEX 01 01:15:27
  TRACK 55 AUDIO
    TITLE "3:cjc005_2105"
    INDEX 01 01:16:05
  TRACK 56 AUDIO
    TITLE "0:"
    INDEX 01 01:17:24
  TRACK 57 AUDIO
    TITLE "4:cjc005_2106"
    INDEX 01 01:17:55
  TRACK 58 AUDIO
    TITLE "0:"
    INDEX 01 01:18:74
  TRACK 59 AUDIO
    TITLE "5:cjc005_2107"
    INDEX 01 01:19:27
  TRACK 60 AUDIO
    TITLE "0:"
    INDEX 01 01:23:26
